<?xml version="1.0" encoding="UTF-8"?>
<svg id="Capa_1" data-name="Capa 1" xmlns="http://www.w3.org/2000/svg" xmlns:xlink="http://www.w3.org/1999/xlink" version="1.1" viewBox="0 0 1080 1080">
  <defs>
    <style>
      .cls-1 {
        clip-path: url(#clippath);
      }

      .cls-2 {
        fill: none;
      }

      .cls-2, .cls-3, .cls-4, .cls-5, .cls-6, .cls-7, .cls-8 {
        stroke-width: 0px;
      }

      .cls-3 {
        fill: #efa929;
      }

      .cls-4 {
        fill: #d5546d;
      }

      .cls-9 {
        clip-path: url(#clippath-1);
      }

      .cls-10 {
        clip-path: url(#clippath-4);
      }

      .cls-11 {
        clip-path: url(#clippath-3);
      }

      .cls-12 {
        clip-path: url(#clippath-2);
      }

      .cls-13 {
        clip-path: url(#clippath-6);
      }

      .cls-14 {
        clip-path: url(#clippath-5);
      }

      .cls-5 {
        fill: #2d9da6;
      }

      .cls-6 {
        fill: #5d2057;
      }

      .cls-7 {
        fill: #fff;
      }

      .cls-8 {
        fill: #2d70ae;
      }
    </style>
    <clipPath id="clippath">
      <path class="cls-2" d="M954.8,1064.8H126c-67.5,0-122.2-54.7-122.2-122.2V137.4C3.8,69.9,58.5,15.2,126,15.2h828.8c67.5,0,122.2,54.7,122.2,122.2v805.1c0,67.5-54.7,122.2-122.2,122.2h0Z"/>
    </clipPath>
    <clipPath id="clippath-1">
      <path class="cls-2" d="M954.8,1064.8H126c-67.5,0-122.2-54.7-122.2-122.2V137.4C3.8,69.9,58.5,15.2,126,15.2h828.8c67.5,0,122.2,54.7,122.2,122.2v805.1c0,67.5-54.7,122.2-122.2,122.2h0Z"/>
    </clipPath>
    <clipPath id="clippath-2">
      <path class="cls-2" d="M954.8,1064.8H126c-67.5,0-122.2-54.7-122.2-122.2V137.4C3.8,69.9,58.5,15.2,126,15.2h828.8c67.5,0,122.2,54.7,122.2,122.2v805.1c0,67.5-54.7,122.2-122.2,122.2h0Z"/>
    </clipPath>
    <clipPath id="clippath-3">
      <path class="cls-2" d="M954.8,1064.8H126c-67.5,0-122.2-54.7-122.2-122.2V137.4C3.8,69.9,58.5,15.2,126,15.2h828.8c67.5,0,122.2,54.7,122.2,122.2v805.1c0,67.5-54.7,122.2-122.2,122.2h0Z"/>
    </clipPath>
    <clipPath id="clippath-4">
      <path class="cls-2" d="M954.8,1064.8H126c-67.5,0-122.2-54.7-122.2-122.2V137.4C3.8,69.9,58.5,15.2,126,15.2h828.8c67.5,0,122.2,54.7,122.2,122.2v805.1c0,67.5-54.7,122.2-122.2,122.2h0Z"/>
    </clipPath>
    <clipPath id="clippath-5">
      <path class="cls-2" d="M954.8,1064.8H126c-67.5,0-122.2-54.7-122.2-122.2V137.4C3.8,69.9,58.5,15.2,126,15.2h828.8c67.5,0,122.2,54.7,122.2,122.2v805.1c0,67.5-54.7,122.2-122.2,122.2h0Z"/>
    </clipPath>
    <clipPath id="clippath-6">
      <path class="cls-2" d="M954.8,1064.8H126c-67.5,0-122.2-54.7-122.2-122.2V137.4C3.8,69.9,58.5,15.2,126,15.2h828.8c67.5,0,122.2,54.7,122.2,122.2v805.1c0,67.5-54.7,122.2-122.2,122.2h0Z"/>
    </clipPath>
  </defs>
  <g id="App_Icon_2" data-name="App Icon 2">
    <g class="cls-1">
      <path class="cls-8" d="M2.4,681.4h268.6v383.4H2.4v-383.4Z"/>
    </g>
    <g class="cls-9">
      <path class="cls-5" d="M271.1,681.4h268.6v383.4h-268.6v-383.4Z"/>
    </g>
    <g class="cls-12">
      <path class="cls-3" d="M539.7,681.4h268.6v383.4h-268.6v-383.4Z"/>
    </g>
    <g class="cls-11">
      <path class="cls-4" d="M808.4,681.4h268.6v383.4h-268.6v-383.4Z"/>
    </g>
    <g class="cls-10">
      <path class="cls-6" d="M924.1,967.3H156.3c-84.2,0-152.5-68.3-152.5-152.5V15.2h1073.6v798.8c0,84.7-68.6,153.3-153.3,153.3Z"/>
    </g>
    <g class="cls-14">
      <path class="cls-7" d="M308.6,258.7h0c-.2.2-.4.4-.6.6s-.4.4-.6.6h0c-118.5,119.9-118.1,313.1,1.2,432.5,91.3,91.3,225.8,113,337.7,65.1,6.7-2.8,12.7-6.9,17.9-12.1,21.3-21.3,23-57.6-.1-80.7-16.6-16.6-41.7-22-63.2-12.8-69.9,29.8-153.9,16.2-210.9-40.8-74.6-74.6-74.8-195.5-.6-270.4,74.9-74.2,195.8-74,270.4.6,57,57,70.6,141,40.8,210.9-9.2,21.6-3.7,46.7,12.8,63.2,23.1,23.1,59.4,21.5,80.7.1s9.1-10.9,12.1-17.9c47.9-111.8,26.2-246.4-65.1-337.7-119.3-119.3-312.6-119.7-432.4-1.2h0Z"/>
    </g>
    <g class="cls-13">
      <circle class="cls-7" cx="790.6" cy="742" r="69.8"/>
    </g>
  </g>
</svg>